<?xml version="1.0" standalone="no"?>
<!DOCTYPE svg PUBLIC "-//W3C//DTD SVG 20010904//EN"
 "http://www.w3.org/TR/2001/REC-SVG-20010904/DTD/svg10.dtd">
<svg version="1.0" xmlns="http://www.w3.org/2000/svg"
 width="1563.000000pt" height="1563.000000pt" viewBox="0 0 1563.000000 1563.000000"
 preserveAspectRatio="xMidYMid meet">

<g transform="translate(0.000000,1563.000000) scale(0.100000,-0.100000)"
fill="#000000" stroke="none">
<path d="M3790 10941 l0 -69 63 -6 c34 -3 148 -12 252 -19 l190 -12 3 -2177 2
-2178 -22 0 c-13 0 -117 -7 -233 -15 -115 -8 -220 -15 -232 -15 -22 0 -23 -4
-23 -70 l0 -70 1053 0 c844 0 1079 3 1187 15 572 60 1036 294 1257 632 142
217 207 491 183 780 -30 378 -197 674 -489 868 -174 116 -360 188 -606 236
-81 16 -305 39 -377 39 -37 0 -69 4 -73 9 -3 5 21 15 52 21 322 62 449 102
668 212 270 136 445 305 536 518 43 101 60 196 60 325 0 185 -33 329 -108 465
-143 263 -387 414 -818 510 -281 63 -297 63 -1462 67 l-1063 4 0 -70z m1942
-126 c354 -63 575 -286 643 -651 22 -115 22 -345 0 -478 -79 -492 -399 -740
-955 -741 -85 0 -185 4 -223 8 l-67 9 2 921 3 921 45 9 c156 28 398 29 552 2z
m-50 -2066 c281 -36 522 -163 689 -362 103 -123 180 -302 215 -502 23 -133 23
-394 0 -525 -87 -500 -415 -807 -931 -871 -101 -13 -326 -6 -447 12 l-78 13 0
1113 c0 882 3 1115 13 1118 6 3 64 9 127 14 124 10 289 6 412 -10z"/>
<path d="M7910 9707 l0 -54 123 -7 c67 -3 155 -9 195 -12 l72 -7 0 -1662 0
-1662 -72 -7 c-40 -3 -128 -9 -195 -12 l-123 -7 0 -54 0 -53 710 0 710 0 0 54
0 53 -122 7 c-68 4 -156 9 -195 13 l-73 6 0 778 0 779 106 0 c58 0 124 -5 147
-11 64 -16 129 -69 208 -171 85 -111 164 -267 308 -616 200 -483 269 -611 391
-725 74 -71 181 -130 265 -148 28 -6 195 -13 373 -16 l322 -5 0 65 0 65 -57 6
c-92 11 -169 55 -255 145 -107 111 -202 278 -368 646 -157 347 -249 500 -361
598 -63 55 -207 129 -295 151 -33 9 -107 21 -163 27 -56 7 -99 14 -97 16 3 3
58 16 123 29 382 78 663 240 813 469 129 199 166 510 90 762 -90 297 -351 488
-781 572 -184 36 -305 41 -1061 41 l-738 0 0 -53z m1485 -103 c139 -28 283
-122 354 -232 77 -120 112 -280 112 -512 1 -217 -27 -368 -93 -507 -113 -241
-323 -350 -681 -356 l-142 -2 -3 807 -2 806 87 7 c49 3 97 8 108 10 35 6 187
-6 260 -21z"/>
<path d="M11534 6759 c-108 -14 -204 -82 -251 -177 -25 -51 -28 -68 -28 -157
0 -87 3 -107 26 -155 48 -101 126 -158 249 -180 78 -14 148 -6 220 26 68 31
114 74 148 139 25 46 27 60 27 165 0 96 -3 123 -21 161 -59 127 -209 199 -370
178z"/>
<path d="M5285 5421 c-51 -13 -92 -39 -128 -81 -96 -112 -65 -286 62 -352 64
-34 153 -37 241 -10 l55 18 5 64 c3 35 10 65 16 67 6 2 20 10 30 18 17 13 5
14 -101 14 -116 0 -119 -1 -80 -15 49 -18 55 -27 55 -86 0 -40 -4 -50 -25 -64
-33 -21 -102 -14 -143 15 -52 36 -77 103 -77 201 0 138 44 190 161 190 72 0
119 -26 146 -80 l17 -35 1 58 c0 54 -1 57 -24 57 -14 0 -35 4 -48 9 -37 14
-129 21 -163 12z"/>
<path d="M6817 5418 c-12 -6 -90 -9 -208 -6 l-189 3 0 -35 c0 -19 -3 -46 -5
-60 -4 -19 -3 -18 6 5 20 51 27 55 100 55 l69 0 0 -182 c0 -101 -4 -188 -8
-194 -4 -7 -23 -19 -42 -27 -34 -15 -30 -15 95 -15 114 0 126 1 96 12 -58 21
-61 31 -61 228 l0 179 77 -3 77 -3 12 -40 c12 -37 12 -38 13 -10 0 17 -3 47
-7 67 -6 32 -9 35 -25 26z"/>
<path d="M8473 5411 c-47 -22 -63 -45 -63 -92 0 -46 32 -90 99 -137 104 -74
133 -127 95 -180 -12 -18 -25 -22 -65 -22 -52 0 -81 19 -116 75 -11 17 -12 13
-10 -29 2 -55 -5 -51 110 -62 96 -10 167 38 167 114 0 54 -30 94 -114 157 -80
59 -96 79 -96 119 0 27 33 56 63 56 32 0 83 -30 97 -55 19 -35 26 -31 22 13
-4 38 -4 38 -61 50 -74 15 -78 15 -128 -7z"/>
<path d="M11289 5423 c-15 -2 -51 -18 -80 -36 -71 -43 -109 -112 -109 -199 0
-70 19 -116 68 -164 66 -64 101 -70 302 -51 19 1 30 13 48 51 12 27 20 51 18
54 -3 2 -20 -13 -38 -33 -95 -109 -260 -74 -298 63 -16 60 -12 162 10 209 27
60 69 83 149 83 l65 0 48 -51 48 -51 0 49 0 50 -75 16 c-74 17 -102 18 -156
10z"/>
<path d="M3585 5407 l40 -13 3 -197 c2 -197 2 -197 -20 -206 -78 -30 -75 -31
87 -28 131 3 167 6 199 22 47 23 76 67 76 119 0 34 -7 46 -44 82 l-45 42 23
15 c13 9 29 29 35 45 16 37 1 74 -42 106 -26 19 -44 21 -190 23 -142 2 -157 1
-122 -10z m250 -32 c27 -26 32 -60 14 -98 -14 -30 -48 -47 -94 -47 l-35 0 0
78 c0 43 3 82 7 85 3 4 24 7 45 7 28 0 46 -7 63 -25z m-6 -180 c16 -8 34 -28
41 -45 18 -44 8 -120 -20 -142 -27 -22 -78 -23 -108 -2 -20 14 -22 23 -22 110
l0 94 40 0 c23 0 54 -7 69 -15z"/>
<path d="M4135 5410 c-3 -5 2 -10 12 -10 40 0 43 -17 43 -217 l0 -193 -30 -6
c-63 -13 -26 -24 80 -24 67 0 110 4 110 10 0 6 -10 10 -23 10 -39 0 -47 18
-47 107 l0 83 30 0 c27 0 36 -9 84 -84 61 -95 86 -115 148 -124 l43 -5 -27 24
c-15 13 -51 63 -82 110 l-55 87 37 29 c34 28 37 35 37 81 0 57 -26 94 -82 118
-38 17 -268 20 -278 4z m214 -11 c39 -14 61 -54 61 -114 0 -61 -32 -95 -90
-95 l-40 0 0 103 c0 57 3 107 7 110 9 10 25 9 62 -4z"/>
<path d="M7275 5410 c-3 -6 5 -10 19 -10 15 0 30 -8 36 -19 15 -29 13 -374 -2
-389 -7 -7 -22 -12 -35 -12 -13 0 -23 -4 -23 -10 0 -6 45 -10 115 -10 70 0
115 4 115 10 0 6 -11 10 -24 10 -44 0 -56 24 -56 111 l0 79 35 0 c25 0 37 -6
46 -22 69 -130 130 -188 198 -188 l32 0 -33 29 c-18 16 -55 66 -82 111 -44 73
-48 83 -33 92 56 31 73 97 41 159 -26 52 -80 69 -221 69 -71 0 -124 -4 -128
-10z m246 -26 c26 -23 42 -79 34 -120 -9 -52 -36 -74 -90 -74 l-45 0 0 103 c0
57 3 107 8 111 11 12 72 -1 93 -20z"/>
<path d="M9230 5403 l35 -18 0 -194 c0 -206 2 -196 -50 -218 -31 -12 228 -15
294 -3 231 43 287 322 84 421 -44 21 -64 24 -223 26 -173 3 -175 3 -140 -14z
m293 -17 c91 -38 132 -169 91 -289 -26 -76 -92 -117 -191 -117 -71 0 -73 6
-73 219 0 103 3 191 7 194 12 12 133 7 166 -7z"/>
<path d="M4750 5399 c13 -6 28 -15 32 -22 12 -18 10 -355 -2 -378 -6 -10 -20
-19 -30 -19 -11 0 -20 -4 -20 -10 0 -6 38 -10 95 -10 95 0 115 7 73 25 -23 10
-23 12 -23 205 l0 194 25 13 c22 11 12 13 -75 12 -76 0 -94 -3 -75 -10z"/>
<path d="M5750 5397 l25 -13 3 -188 c3 -196 -1 -216 -39 -216 -11 0 -19 -4
-19 -10 0 -6 42 -10 105 -10 58 0 105 4 105 8 0 4 -14 13 -30 19 l-31 12 3 88
3 88 117 3 117 3 7 -26 c3 -14 4 -53 2 -87 -5 -65 -21 -88 -65 -88 -13 0 -23
-4 -23 -10 0 -6 45 -10 115 -10 108 0 146 10 90 24 -14 4 -27 16 -30 29 -3 12
-4 101 -3 197 l3 174 25 13 c22 11 10 13 -85 12 -98 0 -106 -2 -77 -13 46 -16
53 -34 50 -113 l-3 -68 -123 -3 -123 -3 3 88 c3 82 5 88 28 100 22 11 12 13
-75 13 -87 0 -97 -2 -75 -13z"/>
<path d="M7895 5403 c44 -11 45 -17 45 -212 0 -201 -2 -211 -51 -211 -15 0
-31 -4 -34 -10 -4 -7 60 -10 184 -10 l191 0 0 38 c0 20 3 48 5 62 l5 25 -12
-26 c-27 -55 -35 -59 -119 -59 l-79 0 0 90 0 90 59 0 c60 0 75 -8 84 -45 2
-11 5 14 6 55 1 67 -1 72 -12 50 -11 -22 -20 -25 -75 -28 l-62 -3 0 86 0 85
69 0 c73 0 81 -4 99 -55 10 -30 10 -30 11 -4 1 15 -2 41 -5 58 l-6 31 -162 -1
c-88 -1 -152 -4 -141 -6z"/>
<path d="M8880 5397 l25 -13 0 -194 c0 -193 0 -195 -22 -205 -43 -18 -23 -25
72 -25 91 0 123 11 70 24 l-25 6 0 199 0 199 28 10 c21 8 6 11 -73 11 -87 1
-97 -1 -75 -12z"/>
<path d="M9905 5403 c44 -11 45 -17 45 -212 0 -201 -2 -211 -51 -211 -15 0
-31 -4 -34 -10 -4 -7 60 -10 184 -10 l191 0 0 38 c0 20 3 48 5 62 l5 25 -12
-26 c-27 -55 -35 -59 -119 -59 l-79 0 0 90 0 90 59 0 c60 0 75 -8 84 -45 2
-11 5 14 6 55 1 67 -1 72 -12 50 -11 -22 -20 -25 -75 -28 l-62 -3 0 86 0 85
69 0 c73 0 81 -4 99 -55 10 -30 10 -30 11 -4 1 15 -2 41 -5 58 l-6 31 -162 -1
c-88 -1 -152 -4 -141 -6z"/>
<path d="M10425 5401 l30 -6 3 -185 c3 -216 1 -230 -33 -230 -14 0 -25 -4 -25
-10 0 -6 37 -10 90 -10 53 0 90 4 90 10 0 6 -11 10 -24 10 -43 0 -47 17 -44
185 l3 157 164 -181 c106 -119 169 -181 180 -179 14 3 16 28 19 211 l2 208 33
14 c30 14 27 14 -58 13 -49 0 -78 -3 -62 -5 42 -7 48 -30 45 -175 l-3 -132
-140 156 -140 157 -80 -1 c-49 0 -69 -3 -50 -7z"/>
<path d="M11725 5403 c44 -11 45 -17 45 -212 0 -201 -2 -211 -51 -211 -15 0
-31 -4 -34 -10 -4 -7 60 -10 184 -10 l191 0 0 38 c0 20 3 48 5 62 l5 25 -12
-26 c-27 -55 -35 -59 -119 -59 l-79 0 0 90 0 90 59 0 c60 0 75 -8 84 -45 2
-11 5 14 6 55 1 67 -1 72 -12 50 -11 -22 -20 -25 -75 -28 l-62 -3 0 86 0 85
69 0 c73 0 81 -4 99 -55 10 -30 10 -30 11 -4 1 15 -2 41 -5 58 l-6 31 -162 -1
c-88 -1 -152 -4 -141 -6z"/>
<path d="M6338 4685 c-57 -32 -42 -99 32 -150 75 -52 97 -97 64 -129 -26 -27
-72 -20 -107 17 l-30 32 7 -30 c10 -38 5 -35 63 -41 88 -11 145 38 122 105 -7
18 -37 51 -75 81 -45 36 -64 57 -64 73 0 52 51 62 101 20 l32 -27 -8 25 c-10
31 -5 29 -61 35 -33 3 -58 0 -76 -11z"/>
<path d="M8032 4679 c-56 -28 -85 -70 -90 -133 -5 -64 24 -111 88 -143 79 -41
159 -26 217 40 120 136 -47 319 -215 236z m124 -5 c91 -43 100 -225 13 -269
-36 -19 -53 -19 -93 0 -94 45 -102 231 -12 271 41 17 51 17 92 -2z"/>
<path d="M9110 4678 c-104 -53 -119 -186 -31 -261 38 -32 84 -41 156 -32 47 5
57 11 70 35 21 41 19 42 -13 10 -62 -61 -157 -45 -192 32 -24 54 -25 122 -2
168 36 73 150 77 192 7 l20 -32 0 36 c0 35 -2 37 -44 48 -67 16 -107 14 -156
-11z"/>
<path d="M9440 4670 c0 -17 3 -21 9 -12 5 9 25 12 57 10 l49 -3 3 -110 c3
-133 0 -151 -35 -163 -22 -8 -10 -10 62 -10 50 0 81 3 70 5 -42 11 -45 21 -45
154 l0 129 50 0 c36 0 52 -5 59 -17 9 -16 10 -14 11 9 l0 27 -145 3 -145 3 0
-25z"/>
<path d="M5938 4683 c9 -3 12 -41 12 -138 0 -141 -3 -149 -50 -158 -14 -2 18
-5 70 -6 52 0 112 4 133 10 79 22 102 91 47 144 l-30 29 21 19 c28 26 23 77
-11 94 -15 8 -61 12 -115 12 -49 0 -84 -3 -77 -6z m159 -29 c15 -24 15 -29 2
-53 -11 -19 -24 -27 -52 -29 l-37 -3 0 55 0 56 35 0 c26 0 39 -6 52 -26z m3
-124 c25 -25 27 -86 3 -112 -18 -20 -63 -24 -81 -6 -7 7 -12 39 -12 75 l0 63
35 0 c22 0 43 -8 55 -20z"/>
<path d="M6643 4679 c15 -9 17 -27 17 -138 0 -133 -3 -143 -45 -154 -11 -2 37
-5 106 -6 l127 -1 7 36 c3 20 4 39 1 42 -3 3 -6 -2 -6 -11 0 -38 -98 -65 -128
-35 -7 7 -12 36 -12 65 l0 53 49 0 c30 0 51 -5 54 -12 3 -7 6 3 6 22 1 26 -2
31 -11 22 -7 -7 -31 -12 -55 -12 l-43 0 0 60 0 61 57 -3 c51 -3 58 -6 65 -28
6 -21 7 -19 5 10 l-2 35 -105 2 c-76 2 -100 0 -87 -8z"/>
<path d="M7183 4679 c15 -9 17 -27 17 -143 0 -128 -1 -133 -22 -144 -19 -9 -8
-11 57 -11 65 1 75 2 53 11 l-28 10 0 144 0 144 -47 0 c-38 -1 -44 -3 -30 -11z"/>
<path d="M7324 4669 c20 -15 26 -29 26 -57 0 -45 -10 -62 -47 -78 -16 -7 -21
-13 -12 -13 9 -1 32 -27 52 -59 34 -54 68 -82 102 -82 10 0 1 18 -24 51 -66
88 -68 95 -38 123 16 15 27 36 27 51 0 35 -50 85 -86 85 l-27 0 27 -21z"/>
<path d="M7598 4683 c9 -3 12 -41 12 -140 0 -118 -2 -138 -17 -149 -16 -11 -7
-13 57 -13 62 0 70 2 48 11 -26 9 -28 14 -28 64 l0 54 35 0 c68 0 115 43 115
105 0 34 -42 75 -77 75 l-27 0 22 -16 c17 -12 22 -25 22 -63 0 -55 -20 -81
-64 -81 l-28 0 4 80 3 80 -45 -1 c-25 0 -39 -3 -32 -6z"/>
<path d="M8428 4682 c9 -7 12 -55 10 -207 -3 -173 -5 -199 -20 -208 -12 -8
-23 -7 -41 2 -31 17 -54 6 -35 -16 16 -20 82 -12 110 14 40 35 48 74 48 241 0
109 4 162 12 170 9 9 0 12 -42 12 -32 0 -50 -4 -42 -8z"/>
<path d="M8683 4679 c15 -9 17 -27 17 -138 0 -133 -3 -143 -45 -154 -11 -2 37
-5 106 -6 l127 -1 7 36 c3 20 4 39 1 42 -3 3 -6 -2 -6 -11 0 -38 -98 -65 -128
-35 -7 7 -12 36 -12 65 l0 53 49 0 c30 0 51 -5 54 -12 3 -7 6 3 6 22 1 26 -2
31 -11 22 -7 -7 -31 -12 -55 -12 l-43 0 0 60 0 61 57 -3 c51 -3 58 -6 65 -28
6 -21 7 -19 5 10 l-2 35 -105 2 c-76 2 -100 0 -87 -8z"/>
</g>
</svg>
